<svg width="208" height="63" viewBox="0 0 208 63" fill="none" xmlns="http://www.w3.org/2000/svg">
<path d="M89.83 52.64C90.17 52.6967 90.34 52.8667 90.34 53.15C90.34 53.3767 90.17 53.66 89.83 54C89.5467 54.3967 89.235 54.8217 88.895 55.275C87.7617 56.8617 86.4583 57.9667 84.985 58.59C83.5117 59.27 82.1517 59.61 80.905 59.61C79.715 59.61 78.7233 59.3833 77.93 58.93C77.3633 58.5333 76.6833 57.91 75.89 57.06C75.1533 56.2667 74.5017 55.2183 73.935 53.915C73.425 52.6117 73.2267 51.0817 73.34 49.325C73.4533 47.455 73.7083 45.3017 74.105 42.865C74.5017 40.3717 74.955 37.85 75.465 35.3C75.975 32.75 76.4283 30.3983 76.825 28.245C77.2783 26.035 77.59 24.3067 77.76 23.06C77.9867 21.3033 77.5333 20.425 76.4 20.425C75.55 20.425 74.53 20.9633 73.34 22.04C72.4333 23.2867 71.2433 24.8733 69.77 26.8C68.3533 28.7267 66.9083 31.6167 65.435 35.47C64.8117 37.17 64.1033 39.0683 63.31 41.165C62.5167 43.205 61.9783 45.6417 61.695 48.475C61.6383 48.8717 61.6383 49.2967 61.695 49.75C61.8083 50.2033 61.865 50.6567 61.865 51.11C61.865 51.6767 61.7233 52.1867 61.44 52.64C60.93 53.3767 60.335 53.8867 59.655 54.17C59.4283 54.2267 59.2017 54.2833 58.975 54.34C58.805 54.3967 58.635 54.425 58.465 54.425C58.1817 54.425 57.9267 54.2833 57.7 54C57.3033 53.5467 57.105 52.8383 57.105 51.875C57.105 50.9117 57.2183 49.92 57.445 48.9C57.7283 47.8233 57.9267 46.8317 58.04 45.925C58.3233 43.8283 58.6067 41.6183 58.89 39.295C59.23 36.915 59.4 34.3367 59.4 31.56C59.4 29.69 59.2867 27.735 59.06 25.695C58.89 23.5983 58.5783 21.3317 58.125 18.895C57.8983 17.7617 57.7 16.7133 57.53 15.75C57.36 14.7867 56.7933 13.9933 55.83 13.37C55.15 12.9167 54.5267 13.285 53.96 14.475C53.3933 15.665 52.8833 17.4217 52.43 19.745C52.0333 22.0683 51.6367 24.76 51.24 27.82C50.8433 30.8233 50.475 33.94 50.135 37.17C49.5683 41.9867 49.0867 46.35 48.69 50.26C48.35 54.17 48.095 57.0033 47.925 58.76C47.8683 59.5533 47.33 60.205 46.31 60.715C45.3467 61.2817 44.3267 61.6783 43.25 61.905C42.23 62.1883 41.5217 62.33 41.125 62.33C40.6717 62.33 40.445 61.99 40.445 61.31C40.445 60.6867 40.5583 59.9783 40.785 59.185C41.0683 58.4483 41.2667 57.8533 41.38 57.4C42.57 53.9433 43.3917 50.6567 43.845 47.54C44.355 44.3667 44.61 41.335 44.61 38.445C44.61 35.4417 44.4117 32.58 44.015 29.86C43.6183 27.14 43.1367 24.5617 42.57 22.125C41.9467 19.3483 40.7 16.6567 38.83 14.05C36.96 11.3867 34.6367 9.205 31.86 7.505C29.0833 5.74833 25.995 4.87 22.595 4.87C20.4417 4.87 18.345 5.23833 16.305 5.975C14.265 6.655 12.225 7.81666 10.185 9.46C8.145 11.1033 6.445 13.2283 5.085 15.835C3.725 18.4417 3.045 21.53 3.045 25.1C3.045 28.3867 3.75333 31.985 5.17 35.895C5.85 37.6517 7.01167 39.2383 8.655 40.655C10.2983 42.0717 12.0833 43.205 14.01 44.055C15.9367 44.905 17.6367 45.33 19.11 45.33C19.79 45.33 20.3283 45.245 20.725 45.075C23.0483 44.225 24.7483 42.865 25.825 40.995C26.9017 39.125 27.44 37.2267 27.44 35.3C27.44 33.6 27.0433 32.0133 26.25 30.54C25.5133 29.01 24.4083 27.8767 22.935 27.14C22.1983 26.8 21.83 26.3183 21.83 25.695C21.83 24.9583 22.3967 24.59 23.53 24.59C24.3233 24.59 25.2017 24.8167 26.165 25.27C27.2983 25.7233 28.375 26.63 29.395 27.99C30.415 29.35 31.1517 30.88 31.605 32.58C31.7183 32.9767 31.8033 33.4017 31.86 33.855C31.9167 34.3083 31.945 34.7617 31.945 35.215C31.945 37.1417 31.4917 39.0117 30.585 40.825C29.735 42.6383 28.6867 44.225 27.44 45.585C26.25 46.8883 25.1167 47.7383 24.04 48.135C22.9067 48.5317 21.6317 48.73 20.215 48.73C18.005 48.73 15.7383 48.2483 13.415 47.285C11.0917 46.265 8.96667 44.8483 7.04 43.035C5.17 41.165 3.78167 39.0117 2.875 36.575C2.08167 34.3083 1.515 32.1833 1.175 30.2C0.778333 28.2167 0.58 26.375 0.58 24.675C0.58 20.6517 1.37333 17.2517 2.96 14.475C4.54667 11.6983 6.50167 9.46 8.825 7.76C11.1483 6.00333 13.415 4.72833 15.625 3.935C17.0417 3.425 18.3733 3.05666 19.62 2.83C20.9233 2.60333 22.17 2.49 23.36 2.49C26.1367 2.49 28.6583 3.05667 30.925 4.19C33.1917 5.26666 35.2033 6.68333 36.96 8.44C38.7167 10.1967 40.2467 12.1233 41.55 14.22C42.8533 16.26 43.9583 18.3 44.865 20.34C45.7717 22.3233 46.5083 24.0517 47.075 25.525C47.3017 26.4317 47.5283 27.1967 47.755 27.82C47.9817 28.4433 48.2083 28.755 48.435 28.755C48.775 28.755 48.9733 27.8767 49.03 26.12C49.0867 23.91 49.4833 21.615 50.22 19.235C51.0133 16.855 51.75 14.6167 52.43 12.52C52.8833 11.5567 53.4217 10.8483 54.045 10.395C54.725 9.94166 55.405 9.715 56.085 9.715C56.9917 9.715 57.7283 10.055 58.295 10.735C60.165 12.7183 61.3267 14.5317 61.78 16.175C62.29 17.8183 62.5733 19.8017 62.63 22.125C62.6867 23.9383 62.8 25.5533 62.97 26.97C63.1967 28.33 63.48 29.3217 63.82 29.945C65.0667 28.1317 66.285 26.3467 67.475 24.59C68.7217 22.8333 69.9117 21.3317 71.045 20.085C72.1783 18.7817 73.1417 17.9883 73.935 17.705C74.615 17.4783 75.2667 17.365 75.89 17.365C77.0233 17.365 77.93 17.6483 78.61 18.215C79.29 18.7817 79.8 19.3767 80.14 20C80.5367 20.6233 80.7633 20.9917 80.82 21.105C81.2167 22.125 81.415 23.315 81.415 24.675C81.415 26.4883 81.1033 28.3867 80.48 30.37C79.9133 32.3533 79.2617 34.3367 78.525 36.32C77.7883 38.3033 77.1083 40.2017 76.485 42.015C75.9183 43.7717 75.635 45.3583 75.635 46.775C75.635 49.6083 75.7483 51.79 75.975 53.32C76.2583 54.7933 76.6267 55.785 77.08 56.295C77.59 56.8617 78.185 57.145 78.865 57.145C79.6017 57.145 80.395 56.975 81.245 56.635C82.1517 56.3517 83.1433 56.1817 84.22 56.125C85.1267 56.0683 85.92 55.7283 86.6 55.105C87.28 54.5383 87.875 53.9717 88.385 53.405C88.9517 52.8383 89.4333 52.5833 89.83 52.64ZM119.41 47.37C119.58 47.2 119.807 47.115 120.09 47.115C120.487 47.115 120.685 47.3133 120.685 47.71C120.685 47.9367 120.543 48.2767 120.26 48.73C120.033 49.1833 119.523 49.7217 118.73 50.345C117.937 51.025 117.115 51.6483 116.265 52.215C115.472 52.7817 114.367 53.065 112.95 53.065C111.42 53.065 110.202 52.7817 109.295 52.215C108.445 51.6483 107.822 51.025 107.425 50.345C107.085 49.6083 106.858 49.0417 106.745 48.645C106.065 49.155 105.357 49.835 104.62 50.685C103.94 51.4783 102.948 52.215 101.645 52.895C100.342 53.5183 98.4717 53.83 96.035 53.83C94.675 53.83 93.4283 53.5183 92.295 52.895C91.2183 52.215 90.68 50.77 90.68 48.56C90.68 47.9367 90.7083 47.285 90.765 46.605C90.8783 45.8683 91.0483 45.075 91.275 44.225C91.955 41.5617 92.7483 39.465 93.655 37.935C94.5617 36.405 95.9217 35.2717 97.735 34.535C98.8683 34.0817 100.257 33.6567 101.9 33.26C103.543 32.8633 104.988 32.5233 106.235 32.24C106.632 32.1267 106.972 31.7583 107.255 31.135C107.595 30.455 107.963 29.8317 108.36 29.265C108.587 28.9817 108.842 28.755 109.125 28.585C109.408 28.3583 109.72 28.245 110.06 28.245C110.343 28.245 110.712 28.3867 111.165 28.67C111.562 28.9533 111.817 29.4917 111.93 30.285C112.1 31.0783 112.185 31.815 112.185 32.495C112.128 32.835 111.987 33.26 111.76 33.77C111.59 34.2233 111.448 34.7333 111.335 35.3C111.222 36.0367 110.938 37.085 110.485 38.445C110.032 39.805 109.805 40.9383 109.805 41.845C109.805 42.6383 109.748 43.63 109.635 44.82C109.522 45.9533 109.522 46.7467 109.635 47.2C110.258 48.56 111.137 49.4667 112.27 49.92C113.403 50.3167 114.395 50.43 115.245 50.26C115.868 50.1467 116.577 49.7783 117.37 49.155C118.163 48.5317 118.843 47.9367 119.41 47.37ZM105.64 37.68C105.527 37.2267 105.243 36.745 104.79 36.235C104.393 35.725 103.883 35.47 103.26 35.47C103.147 35.47 102.92 35.5267 102.58 35.64C101.617 35.98 100.597 36.6317 99.52 37.595C98.4433 38.5017 97.5083 39.6917 96.715 41.165C95.9217 42.6383 95.4683 44.3667 95.355 46.35C95.355 46.9167 95.525 47.6533 95.865 48.56C96.2617 49.4667 96.7717 50.2317 97.395 50.855C98.0183 51.4783 98.6417 51.6483 99.265 51.365C100.625 50.7983 101.758 50.005 102.665 48.985C103.628 47.9083 104.422 46.605 105.045 45.075C105.328 44.3383 105.527 43.5733 105.64 42.78C105.81 41.93 105.895 41.1367 105.895 40.4C105.895 39.72 105.867 39.1533 105.81 38.7C105.753 38.19 105.697 37.85 105.64 37.68ZM142.952 46.35C142.498 47.37 141.507 48.5883 139.977 50.005C138.503 51.4217 136.747 52.6683 134.707 53.745C132.723 54.765 130.712 55.275 128.672 55.275C125.725 55.275 123.742 54.425 122.722 52.725C121.702 50.9683 121.192 48.6167 121.192 45.67C121.192 43.6867 121.362 41.25 121.702 38.36C122.042 35.47 122.552 32.3533 123.232 29.01C123.912 25.6667 124.762 22.295 125.782 18.895C126.802 15.665 127.907 12.52 129.097 9.46C130.287 6.4 132.072 3.73667 134.452 1.47C134.848 0.846665 135.358 0.534999 135.982 0.534999C136.492 0.534999 136.945 0.761665 137.342 1.215C137.738 1.61166 137.908 2.09333 137.852 2.66C137.852 2.66 137.823 3.36833 137.767 4.785C137.767 6.20166 137.682 7.93 137.512 9.97C137.342 11.9533 137.087 13.8517 136.747 15.665C136.237 18.725 135.302 21.955 133.942 25.355C132.638 28.755 131.25 31.8433 129.777 34.62C128.587 36.9433 127.623 38.615 126.887 39.635C126.207 40.655 125.668 41.3917 125.272 41.845C124.932 42.2983 124.677 42.8933 124.507 43.63C124.45 44.0267 124.393 44.48 124.337 44.99C124.337 45.4433 124.337 45.925 124.337 46.435C124.337 47.455 124.393 48.4467 124.507 49.41C124.677 50.3167 124.875 50.9117 125.102 51.195C125.725 51.8183 126.405 52.2717 127.142 52.555C127.878 52.8383 128.615 52.98 129.352 52.98C129.975 52.98 130.542 52.895 131.052 52.725C132.978 52.1583 134.933 51.2233 136.917 49.92C138.957 48.6167 140.402 47.3417 141.252 46.095C141.648 45.5283 141.96 45.16 142.187 44.99C142.47 44.7633 142.697 44.65 142.867 44.65C143.15 44.65 143.292 44.8483 143.292 45.245C143.292 45.3583 143.263 45.5283 143.207 45.755C143.15 45.925 143.065 46.1233 142.952 46.35ZM135.217 6.23C134.65 6.11667 133.743 7.36333 132.497 9.97C131.307 12.5767 130.06 16.1183 128.757 20.595C128.36 21.955 127.907 23.6833 127.397 25.78C126.943 27.8767 126.49 30.0583 126.037 32.325C125.583 34.535 125.243 36.5467 125.017 38.36C126.83 34.6767 128.473 31.3617 129.947 28.415C131.42 25.4683 132.553 22.72 133.347 20.17C134.083 18.13 134.622 15.9483 134.962 13.625C135.358 11.3017 135.557 9.46 135.557 8.1C135.557 7.02333 135.443 6.4 135.217 6.23ZM163.787 46.35C163.333 47.37 162.342 48.5883 160.812 50.005C159.338 51.4217 157.582 52.6683 155.542 53.745C153.558 54.765 151.547 55.275 149.507 55.275C146.56 55.275 144.577 54.425 143.557 52.725C142.537 50.9683 142.027 48.6167 142.027 45.67C142.027 43.6867 142.197 41.25 142.537 38.36C142.877 35.47 143.387 32.3533 144.067 29.01C144.747 25.6667 145.597 22.295 146.617 18.895C147.637 15.665 148.742 12.52 149.932 9.46C151.122 6.4 152.907 3.73667 155.287 1.47C155.683 0.846665 156.193 0.534999 156.817 0.534999C157.327 0.534999 157.78 0.761665 158.177 1.215C158.573 1.61166 158.743 2.09333 158.687 2.66C158.687 2.66 158.658 3.36833 158.602 4.785C158.602 6.20166 158.517 7.93 158.347 9.97C158.177 11.9533 157.922 13.8517 157.582 15.665C157.072 18.725 156.137 21.955 154.777 25.355C153.473 28.755 152.085 31.8433 150.612 34.62C149.422 36.9433 148.458 38.615 147.722 39.635C147.042 40.655 146.503 41.3917 146.107 41.845C145.767 42.2983 145.512 42.8933 145.342 43.63C145.285 44.0267 145.228 44.48 145.172 44.99C145.172 45.4433 145.172 45.925 145.172 46.435C145.172 47.455 145.228 48.4467 145.342 49.41C145.512 50.3167 145.71 50.9117 145.937 51.195C146.56 51.8183 147.24 52.2717 147.977 52.555C148.713 52.8383 149.45 52.98 150.187 52.98C150.81 52.98 151.377 52.895 151.887 52.725C153.813 52.1583 155.768 51.2233 157.752 49.92C159.792 48.6167 161.237 47.3417 162.087 46.095C162.483 45.5283 162.795 45.16 163.022 44.99C163.305 44.7633 163.532 44.65 163.702 44.65C163.985 44.65 164.127 44.8483 164.127 45.245C164.127 45.3583 164.098 45.5283 164.042 45.755C163.985 45.925 163.9 46.1233 163.787 46.35ZM156.052 6.23C155.485 6.11667 154.578 7.36333 153.332 9.97C152.142 12.5767 150.895 16.1183 149.592 20.595C149.195 21.955 148.742 23.6833 148.232 25.78C147.778 27.8767 147.325 30.0583 146.872 32.325C146.418 34.535 146.078 36.5467 145.852 38.36C147.665 34.6767 149.308 31.3617 150.782 28.415C152.255 25.4683 153.388 22.72 154.182 20.17C154.918 18.13 155.457 15.9483 155.797 13.625C156.193 11.3017 156.392 9.46 156.392 8.1C156.392 7.02333 156.278 6.4 156.052 6.23ZM180.967 43.63C180.23 44.8767 179.295 46.2367 178.162 47.71C177.028 49.1267 175.838 50.345 174.592 51.365C173.402 52.385 172.268 52.895 171.192 52.895C169.435 52.895 168.047 52.81 167.027 52.64C166.063 52.4133 165.27 52.1017 164.647 51.705C163.57 50.9683 162.692 50.005 162.012 48.815C161.332 47.625 160.935 46.4067 160.822 45.16C160.765 44.82 160.737 44.48 160.737 44.14C160.737 43.8 160.737 43.4883 160.737 43.205C160.737 39.8617 161.388 36.915 162.692 34.365C163.995 31.815 165.837 30.285 168.217 29.775C168.953 29.6617 169.52 29.9733 169.917 30.71C170.313 31.39 170.512 32.325 170.512 33.515C170.512 35.3283 170.03 37.2833 169.067 39.38C168.67 40.23 168.245 41.0517 167.792 41.845C167.395 42.5817 167.055 43.1767 166.772 43.63C166.035 44.7067 165.468 45.4433 165.072 45.84C164.732 46.18 164.562 46.52 164.562 46.86C164.562 47.7667 165.128 48.645 166.262 49.495C167.395 50.345 169.152 50.77 171.532 50.77C172.438 50.77 173.373 50.3733 174.337 49.58C175.3 48.7867 176.235 47.795 177.142 46.605C178.105 45.415 178.955 44.225 179.692 43.035C180.032 42.4683 180.343 42.185 180.627 42.185C180.967 42.185 181.137 42.44 181.137 42.95C181.137 43.1767 181.08 43.4033 180.967 43.63ZM168.217 32.92C167.99 32.58 167.508 32.665 166.772 33.175C166.092 33.6283 165.468 34.705 164.902 36.405C164.505 37.6517 164.307 39.0967 164.307 40.74C164.307 41.1933 164.307 41.6467 164.307 42.1C164.363 42.5533 164.42 43.0067 164.477 43.46C165.44 41.8167 166.12 40.5983 166.517 39.805C166.97 38.955 167.31 38.0767 167.537 37.17C167.65 36.7167 167.82 36.15 168.047 35.47C168.33 34.79 168.472 34.195 168.472 33.685C168.472 33.345 168.387 33.09 168.217 32.92ZM207.031 50.6C206.918 51.9033 206.238 53.15 204.991 54.34C203.801 55.53 202.271 56.125 200.401 56.125C195.868 56.125 191.873 55.8417 188.416 55.275C185.016 54.7083 182.098 54.1983 179.661 53.745C179.434 53.6883 179.208 53.66 178.981 53.66C178.754 53.66 178.499 53.66 178.216 53.66C177.819 53.66 177.451 53.6883 177.111 53.745C176.828 53.745 176.686 53.745 176.686 53.745C176.063 53.745 175.751 53.2917 175.751 52.385C175.751 51.705 175.921 51.11 176.261 50.6C177.054 49.5233 178.103 48.4467 179.406 47.37C180.709 46.2933 182.041 45.2733 183.401 44.31C184.761 43.29 185.894 42.3267 186.801 41.42C188.161 40.0033 189.691 38.785 191.391 37.765C193.148 36.6883 194.706 35.6967 196.066 34.79C197.426 33.8833 198.163 32.9767 198.276 32.07C197.143 31.9567 196.264 31.9 195.641 31.9C195.018 31.9 194.139 31.7867 193.006 31.56C191.929 31.3333 190.966 31.22 190.116 31.22C189.776 31.22 189.436 31.2483 189.096 31.305C188.813 31.305 188.473 31.305 188.076 31.305C187.793 31.305 187.481 31.305 187.141 31.305C186.801 31.2483 186.433 31.1917 186.036 31.135C186.036 31.135 185.781 31.1917 185.271 31.305C184.818 31.3617 184.393 31.5317 183.996 31.815C183.656 32.0417 183.628 32.3817 183.911 32.835C184.194 33.2883 183.996 33.685 183.316 34.025C182.693 34.365 182.069 34.535 181.446 34.535C180.709 34.535 180.228 34.3367 180.001 33.94C179.718 33.3733 179.576 32.8917 179.576 32.495C179.576 31.5317 179.973 30.7383 180.766 30.115C181.559 29.4917 182.353 29.01 183.146 28.67C183.996 28.33 184.421 28.16 184.421 28.16C186.064 28.3867 187.594 28.5567 189.011 28.67C190.428 28.7267 191.929 28.925 193.516 29.265C194.196 29.435 194.848 29.5483 195.471 29.605C196.151 29.6617 196.831 29.69 197.511 29.69C198.304 29.69 199.154 29.6617 200.061 29.605C200.968 29.5483 201.959 29.52 203.036 29.52C203.376 29.52 203.603 29.7183 203.716 30.115C203.886 30.5117 203.971 30.9367 203.971 31.39C203.971 31.8433 203.886 32.325 203.716 32.835C203.603 33.2883 203.404 33.6 203.121 33.77C201.081 35.0733 199.381 36.1217 198.021 36.915C196.718 37.6517 195.584 38.3033 194.621 38.87C193.714 39.38 192.808 39.975 191.901 40.655C191.051 41.335 190.031 42.27 188.841 43.46C188.218 44.0267 187.396 44.7633 186.376 45.67C185.413 46.52 184.534 47.3417 183.741 48.135C182.948 48.9283 182.551 49.58 182.551 50.09C182.551 50.4867 182.806 50.7133 183.316 50.77C185.469 51.11 187.169 51.45 188.416 51.79C189.663 52.13 190.654 52.47 191.391 52.81C192.128 53.0933 192.836 53.3483 193.516 53.575C194.253 53.8017 195.131 53.9717 196.151 54.085C197.171 54.255 198.588 54.34 200.401 54.34C201.704 54.34 202.781 53.915 203.631 53.065C204.538 52.215 205.019 51.3367 205.076 50.43C205.076 50.26 205.076 50.09 205.076 49.92C205.133 49.6933 205.161 49.4667 205.161 49.24C205.161 48.1067 204.934 47.0017 204.481 45.925C204.084 44.7917 203.291 44.1117 202.101 43.885C201.931 43.8283 201.761 43.8 201.591 43.8C201.421 43.8 201.251 43.8 201.081 43.8C200.911 43.8 200.713 43.8 200.486 43.8C200.316 43.8 200.146 43.8567 199.976 43.97C199.183 44.3667 198.786 44.8767 198.786 45.5C198.786 45.84 198.928 46.265 199.211 46.775C199.551 47.2283 199.919 47.455 200.316 47.455C200.769 47.455 201.138 47.1433 201.421 46.52C201.818 45.84 202.384 45.5 203.121 45.5C203.574 45.5 203.716 45.7267 203.546 46.18C203.093 47.1433 202.554 47.8233 201.931 48.22C201.364 48.6167 200.769 48.815 200.146 48.815C199.239 48.815 198.446 48.475 197.766 47.795C197.143 47.115 196.831 46.3783 196.831 45.585C196.831 44.1117 197.624 43.035 199.211 42.355C199.664 42.1283 200.174 41.93 200.741 41.76C201.364 41.59 201.959 41.5617 202.526 41.675C203.773 41.9017 204.736 42.525 205.416 43.545C206.096 44.565 206.549 45.7267 206.776 47.03C207.059 48.2767 207.144 49.4667 207.031 50.6Z" fill="black"/>
</svg>
